<svg id="Layer_1" enable-background="new 0 0 512 512" height="512" viewBox="0 0 512 512" width="512" xmlns="http://www.w3.org/2000/svg"><g><path d="m472.58 372.527c18.763-34.791 29.42-74.614 29.42-116.932 0-39.037-9.078-75.944-25.212-108.744l-182.963 113.369z" fill="#ff7b79"/><path d="m276 224.155 180.252-111.69c-40.979-57.414-105.955-96.46-180.252-102.448z" fill="#a0c8ff"/><path d="m265.518 289.729-82.146 201.338c22.957 7.095 47.346 10.921 72.629 10.921 79.27 0 149.77-37.563 194.759-95.877z" fill="#ffda8f"/><path d="m236 256.167v-246.15c-126.507 10.196-226 116.245-226 245.578 0 96.572 55.479 180.152 136.248 220.552z" fill="#b8ecbc"/><g><path d="m485.758 142.424c-1.246-2.532-3.501-4.421-6.211-5.201-2.71-.778-5.623-.376-8.02 1.11l-182.964 113.369c-2.937 1.819-4.728 5.028-4.739 8.486-.011 3.459 1.761 6.679 4.686 8.517l178.755 112.307c1.607 1.009 3.451 1.531 5.314 1.531.852 0 1.708-.11 2.547-.331 2.674-.705 4.937-2.488 6.25-4.925 20.035-37.145 30.624-79.225 30.624-121.692 0-39.695-8.829-77.771-26.242-113.171zm-17.115 215.807-155.906-97.952 159.73-98.973c12.968 29.748 19.533 61.413 19.533 94.289 0 35.56-8.05 70.82-23.357 102.636z"/><path d="m271.132 232.904c1.515.846 3.192 1.267 4.867 1.267 1.828 0 3.652-.501 5.262-1.498l180.252-111.69c2.354-1.458 3.999-3.828 4.543-6.547.544-2.718-.06-5.541-1.67-7.796-44.031-61.691-112.403-100.548-187.584-106.607-2.791-.224-5.532.728-7.584 2.622-2.051 1.897-3.218 4.565-3.218 7.362v214.138c0 3.632 1.964 6.981 5.132 8.749zm14.868-211.783c61.495 7.817 117.277 39.55 155.697 88.585l-155.697 96.475z"/><ellipse cx="374.923" cy="471.325" rx="10" ry="10.016"/><path d="m456.07 397.627-185.24-116.384c-2.48-1.563-5.58-1.953-8.38-1.052-2.81.912-5.07 3.005-6.19 5.749l-82.15 201.341c-1.07 2.634-.99 5.498.22 8.072 1.22 2.565 3.38 4.448 6.09 5.289 24.4 7.532 49.83 11.358 75.56 11.358h.04c27.67 0 54.9-4.397 80.92-13.08 5.23-1.753 8.07-7.433 6.33-12.671-1.37-4.096-5.18-6.851-9.49-6.851-1.07 0-2.13.17-3.16.511-23.99 8.003-49.09 12.059-74.62 12.059-20.03 0-39.93-2.514-59.14-7.482l73.42-179.947 165.6 104.046c-9.12 10.747-19.26 20.743-30.14 29.698-4.26 3.515-4.87 9.835-1.37 14.102 1.9 2.324 4.72 3.656 7.73 3.656 2.3 0 4.56-.811 6.34-2.284 14.9-12.259 28.43-26.231 40.23-41.526 1.72-2.223 2.43-5.098 1.93-7.872-.49-2.785-2.14-5.239-4.53-6.732z"/><path d="m246 256.168v-246.151c0-2.796-1.167-5.465-3.218-7.361-2.052-1.896-4.799-2.849-7.584-2.622-63.919 5.151-123.218 34.019-166.971 81.286-43.997 47.529-68.227 109.421-68.227 174.275 0 48.555 13.617 95.822 39.38 136.688 25.061 39.754 60.47 71.852 102.4 92.825 1.402.701 2.933 1.055 4.468 1.055 1.19 0 2.384-.213 3.521-.642 2.604-.981 4.683-3.006 5.735-5.585l89.752-219.979c.492-1.203.744-2.49.744-3.789zm-20-1.968-84.839 207.939c-75.014-41.801-121.161-119.975-121.161-206.544 0-118.669 89.631-219.615 206-234.471z"/></g></g></svg>