<svg width="16" height="16" viewBox="0 0 16 16" fill="none" xmlns="http://www.w3.org/2000/svg">
<path d="M3.2 1.6H16L13.6 8.8H3.2C2.98783 8.8 2.78434 8.88429 2.63431 9.03432C2.48429 9.18434 2.4 9.38783 2.4 9.6C2.4 9.81217 2.48429 10.0157 2.63431 10.1657C2.78434 10.3157 2.98783 10.4 3.2 10.4H13.6V12H3.2C2.56348 12 1.95303 11.7471 1.50294 11.2971C1.05286 10.847 0.8 10.2365 0.8 9.6C0.8 8.96348 1.05286 8.35303 1.50294 7.90294C1.95303 7.45286 2.56348 7.2 3.2 7.2H3.464L2.4 4L1.6 1.6H0V0H2.4C2.61217 0 2.81566 0.0842855 2.96569 0.234315C3.11571 0.384344 3.2 0.587827 3.2 0.8V1.6ZM4 16C3.57565 16 3.16869 15.8314 2.86863 15.5314C2.56857 15.2313 2.4 14.8243 2.4 14.4C2.4 13.9757 2.56857 13.5687 2.86863 13.2686C3.16869 12.9686 3.57565 12.8 4 12.8C4.42435 12.8 4.83131 12.9686 5.13137 13.2686C5.43143 13.5687 5.6 13.9757 5.6 14.4C5.6 14.8243 5.43143 15.2313 5.13137 15.5314C4.83131 15.8314 4.42435 16 4 16ZM12 16C11.5757 16 11.1687 15.8314 10.8686 15.5314C10.5686 15.2313 10.4 14.8243 10.4 14.4C10.4 13.9757 10.5686 13.5687 10.8686 13.2686C11.1687 12.9686 11.5757 12.8 12 12.8C12.4243 12.8 12.8313 12.9686 13.1314 13.2686C13.4314 13.5687 13.6 13.9757 13.6 14.4C13.6 14.8243 13.4314 15.2313 13.1314 15.5314C12.8313 15.8314 12.4243 16 12 16Z" fill="white"/>
</svg>
