<svg id="Layer_1" enable-background="new 0 0 512 512" height="512" viewBox="0 0 512 512" width="512" xmlns="http://www.w3.org/2000/svg"><g><g fill="#fff"><circle cx="256" cy="50" r="20"/><circle cx="256" cy="187.333" r="20"/><circle cx="256" cy="324.667" r="20"/><circle cx="256" cy="462" r="20"/></g><path d="m29 502h127l40-40-40-40h-127c-10.493 0-19 8.507-19 19v42c0 10.493 8.507 19 19 19z" fill="#ff7b79"/><path d="m156 147.333h-127c-10.493 0-19 8.507-19 19v61 78.333c0 10.493 8.507 19 19 19h108c10.493 0 19-8.507 19-19v-78.333l40-40z" fill="#ffda8f"/><path d="m356 10h127c10.493 0 19 8.507 19 19v61 78.333c0 10.493-8.507 19-19 19h-108c-10.493 0-19-8.507-19-19v-78.333l-40-40z" fill="#a0c8ff"/><path d="m356 284.667h127c10.493 0 19 8.507 19 19v61 78.333c0 10.493-8.507 19-19 19h-108c-10.493 0-19-8.507-19-19v-78.333l-40-40z" fill="#b8ecbc"/><g><path d="m286 50c0-13.036-8.361-24.152-20-28.28v-11.72c0-5.522-4.477-10-10-10s-10 4.478-10 10v11.72c-11.639 4.128-20 15.243-20 28.28s8.361 24.152 20 28.28v80.773c-11.639 4.128-20 15.243-20 28.28s8.361 24.152 20 28.28v80.774c-11.639 4.128-20 15.244-20 28.28s8.361 24.152 20 28.28v80.773c-11.639 4.128-20 15.244-20 28.28s8.361 24.152 20 28.28v11.72c0 5.522 4.477 10 10 10s10-4.478 10-10v-11.72c11.639-4.128 20-15.244 20-28.28s-8.361-24.152-20-28.28v-80.773c11.639-4.128 20-15.244 20-28.28s-8.361-24.152-20-28.28v-80.774c11.639-4.128 20-15.243 20-28.28s-8.361-24.152-20-28.28v-80.773c11.639-4.128 20-15.244 20-28.28zm-30-10c5.514 0 10 4.486 10 10s-4.486 10-10 10-10-4.486-10-10 4.486-10 10-10zm0 432c-5.514 0-10-4.486-10-10s4.486-10 10-10 10 4.486 10 10-4.486 10-10 10zm0-137.333c-5.514 0-10-4.486-10-10s4.486-10 10-10 10 4.486 10 10-4.486 10-10 10zm0-137.334c-5.514 0-10-4.486-10-10s4.486-10 10-10 10 4.486 10 10-4.486 10-10 10z"/><path d="m163.071 414.929c-1.875-1.875-4.419-2.929-7.071-2.929h-127c-15.991 0-29 13.01-29 29v42c0 15.99 13.009 29 29 29h127c2.652 0 5.196-1.054 7.071-2.929l40-40c3.905-3.905 3.905-10.237 0-14.143zm-11.213 77.071h-122.858c-4.962 0-9-4.037-9-9v-42c0-4.963 4.038-9 9-9h122.858l30 30z"/><path d="m163.071 140.262c-1.875-1.875-4.419-2.929-7.071-2.929h-127c-15.991 0-29 13.01-29 29v139.333c0 15.99 13.009 29 29 29h108c15.991 0 29-13.01 29-29v-74.19l37.071-37.071c3.905-3.905 3.905-10.237 0-14.143zm-14.142 80c-1.875 1.876-2.929 4.419-2.929 7.071v78.333c0 4.963-4.038 9-9 9h-108c-4.962 0-9-4.037-9-9v-139.333c0-4.963 4.038-9 9-9h122.858l30 30z"/><path d="m483 0h-127c-2.652 0-5.196 1.054-7.071 2.929l-40 40c-3.905 3.905-3.905 10.237 0 14.143l37.071 37.071v74.19c0 15.99 13.009 29 29 29h108c15.991 0 29-13.01 29-29v-139.333c0-15.99-13.009-29-29-29zm9 168.333c0 4.963-4.038 9-9 9h-108c-4.962 0-9-4.037-9-9v-78.333c0-2.652-1.054-5.195-2.929-7.071l-32.929-32.929 30-30h122.858c4.962 0 9 4.037 9 9z"/><circle cx="502" cy="371.81" r="10"/><path d="m483 274.67h-127c-2.63 0-5.21 1.06-7.07 2.93l-40 40c-3.9 3.891-3.9 10.24 0 14.141l37.07 37.069v74.19c0 7.75 3.02 15.029 8.49 20.51 5.48 5.47 12.76 8.49 20.51 8.49h108c7.75 0 15.03-3.021 20.51-8.49 5.47-5.48 8.49-12.76 8.49-20.51v-26.19c0-5.51-4.49-10-10-10s-10 4.49-10 10v26.19c-.01 4.95-4.04 8.99-9 9h-108c-4.96-.01-8.99-4.05-9-9v-78.33c0-2.641-1.07-5.21-2.93-7.07l-32.93-32.93 30-30h122.86c4.96.01 8.99 4.04 9 9v23.14c0 5.51 4.49 10 10 10s10-4.49 10-10v-23.14c0-7.75-3.02-15.03-8.49-20.51-5.48-5.471-12.76-8.49-20.51-8.49z"/></g></g></svg>